<svg width="30" height="30" viewBox="0 0 30 30" fill="none" xmlns="http://www.w3.org/2000/svg">
<path d="M29.8438 15C29.8438 12.0643 28.9732 9.19444 27.3422 6.75343C25.7113 4.31242 23.3931 2.40986 20.6808 1.28633C17.9686 0.16279 14.9841 -0.131261 12.1047 0.441356C9.22537 1.01397 6.58047 2.42754 4.50447 4.50331C2.42847 6.57909 1.01461 9.22383 0.441674 12.1031C-0.131259 14.9824 0.162463 17.967 1.2857 20.6793C2.40894 23.3917 4.31125 25.7101 6.75207 27.3413C9.1929 28.9726 12.0626 29.8434 14.9984 29.8438L15 29.8439L15.0016 29.8438C18.9368 29.8389 22.7094 28.2734 25.4918 25.4906C28.2742 22.7079 29.8393 18.9352 29.8438 15ZM15.5938 28.6426V17.9688H19.75C19.9075 17.9688 20.0585 17.9062 20.1698 17.7949C20.2812 17.6835 20.3438 17.5325 20.3438 17.375C20.3438 17.2175 20.2812 17.0665 20.1698 16.9552C20.0585 16.8438 19.9075 16.7813 19.75 16.7813H15.5938V12.625C15.5946 11.8379 15.9077 11.0833 16.4642 10.5267C17.0208 9.97018 17.7754 9.65712 18.5625 9.65626H20.9375C21.095 9.65626 21.246 9.5937 21.3573 9.48235C21.4687 9.371 21.5313 9.21998 21.5313 9.06251C21.5313 8.90503 21.4687 8.75401 21.3573 8.64266C21.246 8.53131 21.095 8.46876 20.9375 8.46876H18.5625C17.4606 8.46997 16.4041 8.90825 15.6249 9.68744C14.8458 10.4666 14.4075 11.5231 14.4063 12.625V16.7813H10.25C10.0925 16.7813 9.94151 16.8438 9.83016 16.9552C9.71881 17.0665 9.65625 17.2175 9.65625 17.375C9.65625 17.5325 9.71881 17.6835 9.83016 17.7949C9.94151 17.9062 10.0925 17.9688 10.25 17.9688H14.4063V28.6424C10.8392 28.4872 7.47479 26.9412 5.03379 24.3355C2.59279 21.7298 1.26935 18.2718 1.34699 14.7022C1.42462 11.1326 2.89716 7.73535 5.44914 5.23827C8.00112 2.74119 11.4296 1.34287 15 1.34287C18.5704 1.34287 21.9989 2.74119 24.5509 5.23827C27.1028 7.73535 28.5754 11.1326 28.653 14.7022C28.7307 18.2718 27.4072 21.7298 24.9662 24.3355C22.5252 26.9412 19.1608 28.4872 15.5938 28.6424V28.6426Z" fill="black"/>
</svg>
