<?xml version="1.0" standalone="no"?>
<!DOCTYPE svg PUBLIC "-//W3C//DTD SVG 20010904//EN"
 "http://www.w3.org/TR/2001/REC-SVG-20010904/DTD/svg10.dtd">
<svg version="1.0" xmlns="http://www.w3.org/2000/svg"
 width="110.000000pt" height="159.000000pt" viewBox="0 0 110.000000 159.000000"
 preserveAspectRatio="xMidYMid meet">

<g transform="translate(0.000000,159.000000) scale(0.100000,-0.100000)"
fill="#000000" stroke="none">
<path d="M0 795 l0 -795 110 0 110 0 2 702 3 703 438 3 437 2 0 90 0 90 -550
0 -550 0 0 -795z"/>
<path d="M640 1166 c0 -19 13 -33 63 -63 l62 -38 -262 -3 -263 -2 0 -60 c0
-39 4 -62 13 -65 6 -3 185 -4 397 -3 l385 3 -193 128 c-106 70 -195 127 -197
127 -3 0 -5 -11 -5 -24z"/>
<path d="M260 886 c0 -5 366 -246 374 -246 3 0 6 11 6 24 0 18 -15 32 -62 62
l-63 39 263 3 262 2 0 60 0 60 -390 0 c-214 0 -390 -2 -390 -4z"/>
</g>
</svg>
