<?xml version="1.0" encoding="UTF-8"?>
<svg width="31.113mm" height="43.049mm" version="1.1" viewBox="0 0 31.113 43.049" xmlns="http://www.w3.org/2000/svg">
 <defs>
  <marker id="TriangleOutM" overflow="visible" orient="auto">
   <path transform="scale(.4)" d="m5.77 0-8.65 5v-10z" fill="context-stroke" fill-rule="evenodd" stroke="context-stroke" stroke-width="1pt"/>
  </marker>
  <marker id="TriangleOutM-5" overflow="visible" orient="auto">
   <path transform="scale(.4)" d="m5.77 0-8.65 5v-10z" fill="context-stroke" fill-rule="evenodd" stroke="context-stroke" stroke-width="1pt"/>
  </marker>
 </defs>
 <g transform="translate(994.07 -72.621)">
  <path d="m69.052 79.968h40.638v12.237h-28.383l-0.0274 64.805-12.122-0.0121z" color="#000000" stroke-width=".26458" style="-inkscape-stroke:none"/>
  <path d="m90.025 67.746c23.493 2.214 41.9 22.794 41.9 47.854 0 25.15-18.539 45.787-42.152 47.877m-7.9938-8e-3c-23.572-2.132-42.066-22.75-42.066-47.869 1e-6 -25.097 18.462-45.7 42.004-47.864" fill="none" stroke="#000" stroke-width="2.1918"/>
  <g>
   <rect x="65.806" y="100.93" width="36.251" height="8.752"/>
   <rect x="65.753" y="112.32" width="36.242" height="8.4484"/>
   <g stroke-width=".26458">
    <path d="m-39.535-119.77h40.638v12.237h-28.383l-0.0274 64.805-12.122-0.0121z" color="#000000" style="-inkscape-stroke:none"/>
    <path d="m-178.8 136.47h53.867v12.237h-41.612l-0.0274 59.513-12.122-0.0121z" color="#000000" style="-inkscape-stroke:none"/>
    <path d="m-246.13 35.13h37.992v5.2451h-31.029l-0.0274 50.631-6.8307-0.0121z" color="#000000" style="-inkscape-stroke:none"/>
   </g>
   <rect x="-42.78" y="-98.807" width="36.251" height="8.752"/>
   <rect x="-42.833" y="-87.418" width="36.242" height="8.4484"/>
  </g>
  <path d="m174.64 64.325h40.638v12.237h-28.383l-0.0274 64.805-12.122-0.0121z" color="#000000" fill="#686868" style="-inkscape-stroke:none"/>
  <path d="m195.61 52.103c23.493 2.214 41.9 22.794 41.9 47.854 0 25.15-18.539 45.787-42.152 47.877m-7.9938-8e-3c-23.572-2.132-42.066-22.75-42.066-47.869 0-25.097 18.462-45.7 42.004-47.864" fill="none" stroke="#118c4f" stroke-width="2.1918"/>
  <g>
   <rect x="171.39" y="85.292" width="36.251" height="8.752" fill="#118c4f"/>
   <rect x="171.34" y="96.681" width="36.242" height="8.4484" fill="#118c4f"/>
   <path d="m-120.04 30.014h40.638v12.237h-28.383l-0.0274 64.805-12.122-0.0121z" color="#000000" fill="#686868" style="-inkscape-stroke:none"/>
   <rect x="-123.29" y="50.98" width="36.251" height="8.752" fill="#118c4f"/>
   <rect x="-123.34" y="62.369" width="36.242" height="8.4484" fill="#118c4f"/>
   <path d="m61.692-35.069h40.638v12.237h-28.383l-0.0274 64.805-12.122-0.0121z" color="#000000" style="-inkscape-stroke:none"/>
  </g>
  <path d="m82.5-47.291c23.493 2.214 41.9 22.794 41.9 47.854 0 25.15-18.539 45.787-42.152 47.877m-7.9938-8e-3c-23.572-2.132-42.066-22.75-42.066-47.869 0-25.097 18.462-45.7 42.004-47.864" fill="none" stroke="#118c4f" stroke-width="2.1918"/>
  <g>
   <rect x="58.281" y="-14.103" width="36.251" height="8.752" fill="#118c8c"/>
   <rect x="58.227" y="-2.7138" width="36.242" height="8.4484" fill="#118c8c"/>
   <path d="m-119.02-77.888h40.638v12.237h-28.383l-0.0274 64.805-12.122-0.0121z" color="#000000" style="-inkscape-stroke:none"/>
   <rect x="-122.43" y="-56.922" width="36.251" height="8.752" fill="#118c8c"/>
   <rect x="-122.48" y="-45.532" width="36.242" height="8.4484" fill="#118c8c"/>
   <path d="m195.12-84.235h40.638v12.237h-28.383l-0.0274 64.805-12.122-0.0121z" color="#000000" style="-inkscape-stroke:none"/>
  </g>
  <path d="m215.93-96.457c23.493 2.214 41.9 22.794 41.9 47.854 0 25.15-18.539 45.787-42.152 47.877m-7.9938-8e-3c-23.572-2.132-42.066-22.75-42.066-47.869 0-25.097 18.462-45.7 42.004-47.864" fill="none" stroke="#118c4f" stroke-width="2.1918"/>
  <g>
   <rect x="191.71" y="-63.268" width="36.251" height="8.752"/>
   <rect x="191.65" y="-51.879" width="36.242" height="8.4484"/>
   <rect x="-9.7444" y="91.125" width="3.3378" height="17.064"/>
  </g>
  <path d="m-157.2 168.17 19.289-0.22293" fill="none" marker-end="url(#TriangleOutM)" stroke="#000" stroke-miterlimit="1.8" stroke-width="1.9326"/>
  <path d="m-140.88 170.12-19.241 0.041" fill="none" marker-end="url(#TriangleOutM-5)" stroke="#000" stroke-miterlimit="1.8" stroke-width="1.9302"/>
  <g transform="matrix(.65659 0 0 1 -95.157 -25.012)">
   <path d="m-183.38 74.991-34.014 0.22852 0.0176 2.6465 34.014-0.22851z" color="#000000" style="-inkscape-stroke:none"/>
   <path d="m-183.43 77.633 0.0569-2.6127-3.3689-3.66 9.6996 6.2999z" color="#000000" fill-rule="evenodd" stroke-width=".98533" style="-inkscape-stroke:none"/>
  </g>
  <g transform="matrix(-.65658 -.0055286 .0036301 -.99998 -354.46 131.36)">
   <path d="m-183.38 74.991-34.014 0.22852 0.0176 2.6465 34.014-0.22851z" color="#000000" style="-inkscape-stroke:none"/>
   <path d="m-183.43 77.633 0.0569-2.6127-3.3689-3.66 9.6996 6.2999z" color="#000000" fill-rule="evenodd" stroke-width=".98533" style="-inkscape-stroke:none"/>
  </g>
  <path d="m-187.27-21.757h37.992v5.2451h-31.029l-0.0274 50.631-6.8307-0.0121z" color="#000000" stroke-width=".26458" style="-inkscape-stroke:none"/>
  <g transform="matrix(.65659 0 0 1 -36.296 -79.253)">
   <path d="m-183.38 74.991-34.014 0.22852 0.0176 2.6465 34.014-0.22851z" color="#000000" style="-inkscape-stroke:none"/>
   <path d="m-183.43 77.633 0.0569-2.6127-3.3689-3.66 9.6996 6.2999z" color="#000000" fill-rule="evenodd" stroke-width=".98533" style="-inkscape-stroke:none"/>
  </g>
  <g transform="matrix(-.65658 -.0055286 .0036301 -.99998 -295.6 77.115)">
   <path d="m-183.38 74.991-34.014 0.22852 0.0176 2.6465 34.014-0.22851z" color="#000000" style="-inkscape-stroke:none"/>
   <path d="m-183.43 77.633 0.0569-2.6127-3.3689-3.66 9.6996 6.2999z" color="#000000" fill-rule="evenodd" stroke-width=".98533" style="-inkscape-stroke:none"/>
  </g>
  <path d="m-251.37 106.91h37.992v5.2452h-31.029l-0.0274 45.339-6.8307-0.0121z" color="#000000" stroke-width=".26458" style="-inkscape-stroke:none"/>
  <g transform="matrix(.65659 0 0 1 -100.4 46.769)">
   <path d="m-183.38 74.991-34.014 0.22852 0.0176 2.6465 34.014-0.22851z" color="#000000" style="-inkscape-stroke:none"/>
   <path d="m-183.43 77.633 0.0569-2.6127-3.3689-3.66 9.6996 6.2999z" color="#000000" fill-rule="evenodd" stroke-width=".98533" style="-inkscape-stroke:none"/>
  </g>
  <g transform="matrix(-.65658 -.0055286 .0036301 -.99998 -359.7 201.55)">
   <path d="m-183.38 74.991-34.014 0.22852 0.0176 2.6465 34.014-0.22851z" color="#000000" style="-inkscape-stroke:none"/>
   <path d="m-183.43 77.633 0.0569-2.6127-3.3689-3.66 9.6996 6.2999z" color="#000000" fill-rule="evenodd" stroke-width=".98533" style="-inkscape-stroke:none"/>
  </g>
  <path d="m-185.88 69.344h37.992v5.2452h-31.029l-0.0274 45.339-6.8307-0.0121z" color="#000000" stroke-width=".26458" style="-inkscape-stroke:none"/>
  <g transform="matrix(.65659 0 0 1 -35.395 11.848)">
   <path d="m-183.38 74.991-34.014 0.22852 0.0176 2.6465 34.014-0.22851z" color="#000000" style="-inkscape-stroke:none"/>
   <path d="m-183.43 77.633 0.0569-2.6127-3.3689-3.66 9.6996 6.2999z" color="#000000" fill-rule="evenodd" stroke-width=".98533" style="-inkscape-stroke:none"/>
  </g>
  <g transform="matrix(-.65658 -.0055286 .0036301 -.99998 -294.7 166.63)">
   <path d="m-183.38 74.991-34.014 0.22852 0.0176 2.6465 34.014-0.22851z" color="#000000" style="-inkscape-stroke:none"/>
   <path d="m-183.43 77.633 0.0569-2.6127-3.3689-3.66 9.6996 6.2999z" color="#000000" fill-rule="evenodd" stroke-width=".98533" style="-inkscape-stroke:none"/>
  </g>
  <g transform="translate(595.34 -29.831)">
   <path d="m-501.45-146.39-61.601 5e-3 -0.0107 5.2915 61.601-6e-3z" color="#000000" stroke-width="1.6721" style="-inkscape-stroke:none"/>
   <g transform="translate(-291.18 -68.34)">
    <path d="m-223.18-88.387 30.863 15.611-18.01 0.0051 7e-3 -5.2629s-11.522-8.4037-12.861-10.354z" color="#000000" fill-rule="evenodd" stroke-linejoin="round" stroke-width=".99219" style="-inkscape-stroke:none"/>
   </g>
   <g transform="translate(0 1.0583)">
    <path d="m-545.07-135.61 61.553 0.0286 0.0173-5.2915-61.553-0.0281z" color="#000000" stroke-width="1.6715" style="-inkscape-stroke:none"/>
    <g transform="rotate(180.05 -377.68 -106.76)">
     <path d="m-223.18-88.387 30.863 15.611-18.01 0.0051 7e-3 -5.2629s-11.522-8.4037-12.861-10.354z" color="#000000" fill-rule="evenodd" stroke-linejoin="round" stroke-width=".99219" style="-inkscape-stroke:none"/>
    </g>
   </g>
  </g>
  <path d="m-135.26-156.12h26.88v4.8291h-20.974l-0.11683 37.288-5.7724-0.0121z" color="#000000" stroke-width=".26458" style="-inkscape-stroke:none"/>
  <path d="m-189.18-230.45h28.996v4.8291h-23.091l-0.11683 37.288-5.7724-0.0121z" color="#000000" stroke-width=".26458" style="-inkscape-stroke:none"/>
  <g transform="matrix(.23637 0 0 .23029 4.3032 -105.19)">
   <path d="m-501.45-146.39-61.601 5e-3 -0.0107 5.2915 61.601-6e-3z" color="#000000" stroke-width="1.6721" style="-inkscape-stroke:none"/>
   <g transform="translate(-291.18 -68.34)">
    <path d="m-223.18-88.387 30.863 15.611-18.01 0.0051 7e-3 -5.2629s-11.522-8.4037-12.861-10.354z" color="#000000" fill-rule="evenodd" stroke-linejoin="round" stroke-width=".99219" style="-inkscape-stroke:none"/>
   </g>
  </g>
  <g transform="matrix(-.23636 7.2665e-5 -.0010087 -.23029 -243.21 -169.61)">
   <path d="m-501.45-146.39-61.601 5e-3 -0.0107 5.2915 61.601-6e-3z" color="#000000" stroke-width="1.6721" style="-inkscape-stroke:none"/>
   <g transform="translate(-291.18 -68.34)">
    <path d="m-223.18-88.387 30.863 15.611-18.01 0.0051 7e-3 -5.2629s-11.522-8.4037-12.861-10.354z" color="#000000" fill-rule="evenodd" stroke-linejoin="round" stroke-width=".99219" style="-inkscape-stroke:none"/>
   </g>
  </g>
  <path d="m-318.27-76.492h26.88v4.8291h-20.974l-0.11683 37.288-5.7724-0.0121z" color="#000000" stroke-width=".26458" style="-inkscape-stroke:none"/>
  <g transform="matrix(.23637 0 0 .23029 -178.71 -25.555)">
   <path d="m-501.45-146.39-61.601 5e-3 -0.0107 5.2915 61.601-6e-3z" color="#000000" stroke-width="1.6721" style="-inkscape-stroke:none"/>
   <g transform="translate(-291.18 -68.34)">
    <path d="m-223.18-88.387 30.863 15.611-18.01 0.0051 7e-3 -5.2629s-11.522-8.4037-12.861-10.354z" color="#000000" fill-rule="evenodd" stroke-linejoin="round" stroke-width=".99219" style="-inkscape-stroke:none"/>
   </g>
  </g>
  <g transform="matrix(-.23636 7.2665e-5 -.0010087 -.23029 -426.22 -89.981)">
   <path d="m-501.45-146.39-61.601 5e-3 -0.0107 5.2915 61.601-6e-3z" color="#000000" stroke-width="1.6721" style="-inkscape-stroke:none"/>
   <g transform="translate(-291.18 -68.34)">
    <path d="m-223.18-88.387 30.863 15.611-18.01 0.0051 7e-3 -5.2629s-11.522-8.4037-12.861-10.354z" color="#000000" fill-rule="evenodd" stroke-linejoin="round" stroke-width=".99219" style="-inkscape-stroke:none"/>
   </g>
  </g>
  <path d="m-240.75-61.963h26.88v4.8291h-20.974l-0.11683 37.288-5.7724-0.0121z" color="#000000" stroke-width=".26458" style="-inkscape-stroke:none"/>
  <g transform="matrix(.23637 0 0 .23029 -101.19 -11.026)">
   <path d="m-496.97-146.39-66.079 5e-3 -0.0107 5.2915 66.079-6e-3z" color="#000000" stroke-width="1.6721" style="-inkscape-stroke:none"/>
   <g transform="translate(-291.18 -68.34)">
    <path d="m-223.18-88.387 30.863 15.611-13.532 0.0051 7e-3 -5.2629-17.342-8.8286 3e-3 -1.525z" color="#000000" fill-rule="evenodd" stroke-linejoin="round" stroke-width=".99219" style="-inkscape-stroke:none"/>
   </g>
  </g>
  <g transform="matrix(-.23637 0 0 -.23029 -348.56 -75.487)">
   <path d="m-496.97-146.39-66.079 5e-3 -0.0107 5.2915 66.079-6e-3z" color="#000000" stroke-width="1.6721" style="-inkscape-stroke:none"/>
   <g transform="translate(-291.18 -68.34)">
    <path d="m-223.18-88.387 30.863 15.611-13.532 0.0051 7e-3 -5.2629-17.342-8.8286 3e-3 -1.525z" color="#000000" fill-rule="evenodd" stroke-linejoin="round" stroke-width=".99219" style="-inkscape-stroke:none"/>
   </g>
  </g>
  <g>
   <path d="m-73.732-181.15h26.88v4.8291h-20.974l-0.11683 37.288-5.7724-0.0121z" color="#000000" fill="#686868" style="-inkscape-stroke:none"/>
   <g transform="matrix(.22991 0 0 .23029 62.195 -131.27)" fill="#118c4f">
    <path d="m-501.45-146.39-61.601 5e-3 -0.0107 5.2915 61.601-6e-3z" color="#000000" stroke-width="1.6721" style="-inkscape-stroke:none"/>
    <g transform="translate(-291.18 -68.34)">
     <path d="m-223.18-88.387 30.863 15.611-18.01 0.0051 7e-3 -5.2629s-11.522-8.4037-12.861-10.354z" color="#000000" fill="#118c4f" fill-rule="evenodd" stroke-linejoin="round" stroke-width=".99219" style="-inkscape-stroke:none"/>
    </g>
   </g>
   <g transform="matrix(-.22991 7.2665e-5 -.00098116 -.23029 -178.56 -195.69)" fill="#118c8c">
    <path d="m-501.45-146.39-61.601 5e-3 -0.0107 5.2915 61.601-6e-3z" color="#000000" stroke-width="1.6721" style="-inkscape-stroke:none"/>
    <g transform="translate(-291.18 -68.34)">
     <path d="m-223.18-88.387 30.863 15.611-18.01 0.0051 7e-3 -5.2629s-11.522-8.4037-12.861-10.354z" color="#000000" fill="#118c8c" fill-rule="evenodd" stroke-linejoin="round" stroke-width=".99219" style="-inkscape-stroke:none"/>
    </g>
   </g>
   <text x="39.373901" y="-136.13217" fill="#000000" font-family="sans-serif" font-size="10.583px" stroke-width=".26458" style="line-height:1.25" xml:space="preserve"><tspan x="39.373901" y="-136.13217" font-family="Chilanka" font-size="15.169px" stroke-width=".26458" style="font-variant-caps:normal;font-variant-east-asian:normal;font-variant-ligatures:normal;font-variant-numeric:normal">Fiatswap.io</tspan></text>
   <text transform="matrix(.26458 0 0 .26458 -196.17 -122.52)" fill="#000000" font-family="sans-serif" font-size="40px" style="line-height:1.25;shape-inside:url(#rect46282);white-space:pre" xml:space="preserve"/>
  </g>
  <g transform="matrix(.40825 0 0 .70612 -28.601 -61.077)">
   <g transform="matrix(.73605 0 0 1 -213.83 -18.58)">
    <path d="m-181.85-199.18-39.548 0.0117v4.7578l39.55-0.01z" color="#000000" style="-inkscape-stroke:none"/>
    <path d="m-192.73-201.74-0.0103-2.5068 37.738 9.8204-27.317 6e-3 -3e-3 -4.7824z" color="#000000" fill-rule="evenodd" stroke-linejoin="round" stroke-width="1.7846" style="-inkscape-stroke:none"/>
   </g>
   <g transform="matrix(-.73605 -.00050455 .0020507 -1 -490.48 -406.78)">
    <path d="m-181.85-199.18-39.548 0.0117v4.7578l39.55-0.01z" color="#000000" style="-inkscape-stroke:none"/>
    <path d="m-192.73-201.74-0.0103-2.5068 37.738 9.8204-27.317 6e-3 -3e-3 -4.7824z" color="#000000" fill-rule="evenodd" stroke-linejoin="round" stroke-width="1.7846" style="-inkscape-stroke:none"/>
   </g>
  </g>
  <path d="m-257.14-222.93h28.996v4.8291h-23.091l-0.11683 37.288-5.7724-0.0121z" color="#000000" stroke-width=".26458" style="-inkscape-stroke:none"/>
  <g transform="matrix(.3146 0 0 .70612 -180.98 -67.743)">
   <path d="m-175.28-199.18-46.115 0.0117v4.7578l46.117-0.01z" color="#000000" style="-inkscape-stroke:none"/>
   <path d="m-192.73-203.74-0.0103-0.51277 37.738 9.8204-20.423 6e-3 -3e-3 -4.7824z" color="#000000" fill-rule="evenodd" stroke-linejoin="round" stroke-width="1.7846" style="-inkscape-stroke:none"/>
  </g>
  <g transform="matrix(-.3146 0 0 -.70612 -299.4 -341.25)">
   <path d="m-175.37-199.18-46.033 0.0117v4.7578l46.035-0.01z" color="#000000" style="-inkscape-stroke:none"/>
   <path d="m-192.73-203.74-0.0103-0.51277 37.738 9.8204-20.423 6e-3 -3e-3 -4.7824z" color="#000000" fill-rule="evenodd" stroke-linejoin="round" stroke-width="1.7846" style="-inkscape-stroke:none"/>
  </g>
  <path d="m-264.78-155.77h28.996v4.8291h-23.091l-0.11683 37.288-5.7724-0.0121z" color="#000000" stroke-width=".26458" style="-inkscape-stroke:none"/>
  <g transform="matrix(.3146 0 0 .70612 -188.71 -1.1123)">
   <path d="m-171.78-199.18-49.622 0.0117v4.7578l49.624-0.01z" color="#000000" style="-inkscape-stroke:none"/>
   <path d="m-187.39-203.74-0.0103-0.51277 32.539 9.8204-17.202 6e-3 -3e-3 -4.7824z" color="#000000" fill-rule="evenodd" stroke-linejoin="round" stroke-width="1.7846" style="-inkscape-stroke:none"/>
  </g>
  <g transform="matrix(-.3146 0 0 -.70612 -307.13 -274.62)">
   <path d="m-173.4-199.18-48.285 0.0117v4.7578l48.287-0.01z" color="#000000" style="-inkscape-stroke:none"/>
   <path d="m-189-203.74-0.0103-0.51277 34.01 9.8204-18.598 6e-3 -3e-3 -4.7824z" color="#000000" fill-rule="evenodd" stroke-linejoin="round" stroke-width="1.7846" style="-inkscape-stroke:none"/>
  </g>
  <path d="m-304.18-136.07h28.996v4.8291h-23.091l-0.11683 37.288-5.7724-0.0121z" color="#000000" stroke-width=".26458" style="-inkscape-stroke:none"/>
  <g transform="matrix(.3146 0 0 .70612 -228.11 18.596)">
   <path d="m-173.86-199.18-47.537 0.0117v4.7578l47.539-0.01z" color="#000000" style="-inkscape-stroke:none"/>
   <path d="m-187.39-202.99-0.0103-1.2622 32.539 9.8204-19.287 6e-3 -3e-3 -4.7824z" color="#000000" fill-rule="evenodd" stroke-linejoin="round" stroke-width="1.7846" style="-inkscape-stroke:none"/>
  </g>
  <g transform="matrix(-.3146 0 0 -.70612 -346.53 -254.92)">
   <path d="m-175.48-199.18-46.2 0.0117v4.7578l46.202-0.01z" color="#000000" style="-inkscape-stroke:none"/>
   <path d="m-189-202.99-0.0103-1.2622 34.01 9.8204-20.684 6e-3 -3e-3 -4.7824z" color="#000000" fill-rule="evenodd" stroke-linejoin="round" stroke-width="1.7846" style="-inkscape-stroke:none"/>
  </g>
  <path d="m-412.98-109.65h28.996v4.8291h-23.091l-0.11683 37.288-5.7724-0.0121z" color="#000000" stroke-width=".26458" style="-inkscape-stroke:none"/>
  <g transform="matrix(.3146 0 0 .70612 -336.92 45.009)" fill="#418363">
   <path d="m-177.27-199.18-44.13 0.0117v4.7578l44.132-0.01z" color="#000000" style="-inkscape-stroke:none"/>
   <path d="m-188.05-202.24-0.0103-2.0116 33.201 9.8204-22.574 6e-3 -3e-3 -4.7824z" color="#000000" fill="#418363" fill-rule="evenodd" stroke-linejoin="round" stroke-width="1.7846" style="-inkscape-stroke:none"/>
  </g>
  <g transform="matrix(-.3146 0 0 -.70612 -455.29 -228.5)" fill="#118c4f">
   <path d="m-177.27-199.18-44.13 0.0117v4.7578l44.132-0.01z" color="#000000" style="-inkscape-stroke:none"/>
   <path d="m-188.05-202.24-0.0103-2.0116 33.201 9.8204-22.574 6e-3 -3e-3 -4.7824z" color="#000000" fill="#118c4f" fill-rule="evenodd" stroke-linejoin="round" stroke-width="1.7846" style="-inkscape-stroke:none"/>
  </g>
  <path d="m-466.49-50.678h28.996v4.8291h-23.091l-0.11683 37.288-5.7724-0.0121z" color="#000000" stroke-width=".26458" style="-inkscape-stroke:none"/>
  <g transform="matrix(.3146 0 0 .70612 -390.42 103.98)" fill="#216a46">
   <path d="m-177.27-199.18-44.13 0.0117v4.7578l44.132-0.01z" color="#000000" style="-inkscape-stroke:none"/>
   <path d="m-188.05-202.24-0.0103-2.0116 33.201 9.8204-22.574 6e-3 -3e-3 -4.7824z" color="#000000" fill="#216a46" fill-rule="evenodd" stroke-linejoin="round" stroke-width="1.7846" style="-inkscape-stroke:none"/>
  </g>
  <g transform="matrix(-.3146 0 0 -.70612 -508.79 -169.53)" fill="#118c4f">
   <path d="m-177.27-199.18-44.13 0.0117v4.7578l44.132-0.01z" color="#000000" style="-inkscape-stroke:none"/>
   <path d="m-188.05-202.24-0.0103-2.0116 33.201 9.8204-22.574 6e-3 -3e-3 -4.7824z" color="#000000" fill="#118c4f" fill-rule="evenodd" stroke-linejoin="round" stroke-width="1.7846" style="-inkscape-stroke:none"/>
  </g>
  <path d="m-469.42-103.86h28.996v4.8291h-23.091l-0.11683 37.288-5.7724-0.0121z" color="#000000" stroke-width=".26458" style="-inkscape-stroke:none"/>
  <g transform="matrix(.3146 0 0 .70612 -393.35 50.802)" fill="#118c4f">
   <path d="m-177.27-199.18-44.13 0.0117v4.7578l44.132-0.01z" color="#000000" style="-inkscape-stroke:none"/>
   <path d="m-188.05-202.24-0.0103-2.0116 33.201 9.8204-22.574 6e-3 -3e-3 -4.7824z" color="#000000" fill="#118c4f" fill-rule="evenodd" stroke-linejoin="round" stroke-width="1.7846" style="-inkscape-stroke:none"/>
  </g>
  <g transform="matrix(-.3146 0 0 -.70612 -511.72 -222.71)" fill="#118c8c">
   <path d="m-177.27-199.18-44.13 0.0117v4.7578l44.132-0.01z" color="#000000" style="-inkscape-stroke:none"/>
   <path d="m-188.05-202.24-0.0103-2.0116 33.201 9.8204-22.574 6e-3 -3e-3 -4.7824z" color="#000000" fill="#118c8c" fill-rule="evenodd" stroke-linejoin="round" stroke-width="1.7846" style="-inkscape-stroke:none"/>
  </g>
  <path d="m-438.34-154.64h28.996v4.8291h-23.091l-0.11683 37.288-5.7724-0.0121z" color="#000000" stroke-width=".26458" style="-inkscape-stroke:none"/>
  <g transform="matrix(.3146 0 0 .70612 -362.27 .02105)" fill="#118c4f">
   <path d="m-177.27-199.18-44.13 0.0117v4.7578l44.132-0.01z" color="#000000" style="-inkscape-stroke:none"/>
   <path d="m-188.05-202.24-0.0103-2.0116 33.201 9.8204-22.574 6e-3 -3e-3 -4.7824z" color="#000000" fill="#118c4f" fill-rule="evenodd" stroke-linejoin="round" stroke-width="1.7846" style="-inkscape-stroke:none"/>
  </g>
  <g transform="matrix(-.3146 0 0 -.70612 -480.64 -273.49)" fill="#11a85e">
   <path d="m-177.27-199.18-44.13 0.0117v4.7578l44.132-0.01z" color="#000000" style="-inkscape-stroke:none"/>
   <path d="m-188.05-202.24-0.0103-2.0116 33.201 9.8204-22.574 6e-3 -3e-3 -4.7824z" color="#000000" fill="#11a85e" fill-rule="evenodd" stroke-linejoin="round" stroke-width="1.7846" style="-inkscape-stroke:none"/>
  </g>
  <path d="m-518.79-87.14h28.996v4.8291h-23.091l-0.11683 37.288-5.7724-0.0121z" color="#000000" stroke-width=".26458" style="-inkscape-stroke:none"/>
  <g transform="matrix(.3146 0 0 .70612 -442.72 67.521)" fill="#56a8a8">
   <path d="m-177.27-199.18-44.13 0.0117v4.7578l44.132-0.01z" color="#000000" style="-inkscape-stroke:none"/>
   <path d="m-188.05-202.24-0.0103-2.0116 33.201 9.8204-22.574 6e-3 -3e-3 -4.7824z" color="#000000" fill="#56a8a8" fill-rule="evenodd" stroke-linejoin="round" stroke-width="1.7846" style="-inkscape-stroke:none"/>
  </g>
  <g transform="matrix(-.3146 0 0 -.70612 -561.09 -205.99)" fill="#00a1a1">
   <path d="m-177.27-199.18-44.13 0.0117v4.7578l44.132-0.01z" color="#000000" style="-inkscape-stroke:none"/>
   <path d="m-188.05-202.24-0.0103-2.0116 33.201 9.8204-22.574 6e-3 -3e-3 -4.7824z" color="#000000" fill="#00a1a1" fill-rule="evenodd" stroke-linejoin="round" stroke-width="1.7846" style="-inkscape-stroke:none"/>
  </g>
  <path d="m-416.92-54.331h28.996v4.8291h-23.091l-0.11683 37.288-5.7724-0.0121z" color="#000000" stroke-width=".26458" style="-inkscape-stroke:none"/>
  <g transform="matrix(.3146 0 0 .70612 -340.85 100.33)" fill="#118c4f">
   <path d="m-177.27-199.18-44.13 0.0117v4.7578l44.132-0.01z" color="#000000" style="-inkscape-stroke:none"/>
   <path d="m-188.05-202.24-0.0103-2.0116 33.201 9.8204-22.574 6e-3 -3e-3 -4.7824z" color="#000000" fill="#118c4f" fill-rule="evenodd" stroke-linejoin="round" stroke-width="1.7846" style="-inkscape-stroke:none"/>
  </g>
  <g transform="matrix(-.3146 0 0 -.70612 -459.22 -173.18)" fill="#35d586">
   <path d="m-177.27-199.18-44.13 0.0117v4.7578l44.132-0.01z" color="#000000" style="-inkscape-stroke:none"/>
   <path d="m-188.05-202.24-0.0103-2.0116 33.201 9.8204-22.574 6e-3 -3e-3 -4.7824z" color="#000000" fill="#35d586" fill-rule="evenodd" stroke-linejoin="round" stroke-width="1.7846" style="-inkscape-stroke:none"/>
  </g>
  <path d="m-712.94-212.73h28.996v4.8291h-23.091l-0.11683 37.288-5.7724-0.0121z" color="#000000" stroke-width=".26458" style="-inkscape-stroke:none"/>
  <g>
   <g transform="matrix(.3146 0 0 .70612 -636.87 -58.066)" fill="#118c4f">
    <path d="m-177.27-199.18-44.13 0.0117v4.7578l44.132-0.01z" color="#000000" style="-inkscape-stroke:none"/>
    <path d="m-188.05-202.24-0.0103-2.0116 33.201 9.8204-22.574 6e-3 -3e-3 -4.7824z" color="#000000" fill="#118c4f" fill-rule="evenodd" stroke-linejoin="round" stroke-width="1.7846" style="-inkscape-stroke:none"/>
   </g>
   <g transform="matrix(-.3146 0 0 -.70612 -755.24 -331.58)" fill="#35d586">
    <path d="m-177.27-199.18-44.13 0.0117v4.7578l44.132-0.01z" color="#000000" style="-inkscape-stroke:none"/>
    <path d="m-188.05-202.24-0.0103-2.0116 33.201 9.8204-22.574 6e-3 -3e-3 -4.7824z" color="#000000" fill="#35d586" fill-rule="evenodd" stroke-linejoin="round" stroke-width="1.7846" style="-inkscape-stroke:none"/>
   </g>
   <path d="m-673.37-212.17h28.996v4.8291h-23.091l-0.11683 37.288-5.7724-0.0121z" color="#000000" fill="#fff" stroke-width=".26458" style="-inkscape-stroke:none"/>
   <g transform="matrix(.3146 0 0 .70612 -597.31 -57.51)" fill="#118c4f">
    <path d="m-177.27-199.18-44.13 0.0117v4.7578l44.132-0.01z" color="#000000" style="-inkscape-stroke:none"/>
    <path d="m-188.05-202.24-0.0103-2.0116 33.201 9.8204-22.574 6e-3 -3e-3 -4.7824z" color="#000000" fill="#118c4f" fill-rule="evenodd" stroke-linejoin="round" stroke-width="1.7846" style="-inkscape-stroke:none"/>
   </g>
   <g transform="matrix(-.3146 0 0 -.70612 -715.68 -331.02)" fill="#35d586">
    <path d="m-177.27-199.18-44.13 0.0117v4.7578l44.132-0.01z" color="#000000" style="-inkscape-stroke:none"/>
    <path d="m-188.05-202.24-0.0103-2.0116 33.201 9.8204-22.574 6e-3 -3e-3 -4.7824z" color="#000000" fill="#35d586" fill-rule="evenodd" stroke-linejoin="round" stroke-width="1.7846" style="-inkscape-stroke:none"/>
   </g>
   <path d="m-633.46-212.42h28.996v4.8291h-23.091l-0.11683 37.288-5.7724-0.0121z" color="#000000" fill="#cecece" stroke-width=".26458" style="-inkscape-stroke:none"/>
   <g transform="matrix(.3146 0 0 .70612 -557.39 -57.76)" fill="#118c4f">
    <path d="m-177.27-199.18-44.13 0.0117v4.7578l44.132-0.01z" color="#000000" style="-inkscape-stroke:none"/>
    <path d="m-188.05-202.24-0.0103-2.0116 33.201 9.8204-22.574 6e-3 -3e-3 -4.7824z" color="#000000" fill="#118c4f" fill-rule="evenodd" stroke-linejoin="round" stroke-width="1.7846" style="-inkscape-stroke:none"/>
   </g>
   <g transform="matrix(-.3146 0 0 -.70612 -675.76 -331.27)" fill="#35d586">
    <path d="m-177.27-199.18-44.13 0.0117v4.7578l44.132-0.01z" color="#000000" style="-inkscape-stroke:none"/>
    <path d="m-188.05-202.24-0.0103-2.0116 33.201 9.8204-22.574 6e-3 -3e-3 -4.7824z" color="#000000" fill="#35d586" fill-rule="evenodd" stroke-linejoin="round" stroke-width="1.7846" style="-inkscape-stroke:none"/>
   </g>
  </g>
  <path d="m-712.25-158.03h28.996v4.8291h-23.091l-0.11683 37.288-5.7724-0.0121z" color="#000000" stroke-width=".26458" style="-inkscape-stroke:none"/>
  <g>
   <g transform="matrix(.3146 0 0 .70612 -636.18 -3.3717)" fill="#35d586">
    <path d="m-177.27-199.18-44.13 0.0117v4.7578l44.132-0.01z" color="#000000" style="-inkscape-stroke:none"/>
    <path d="m-188.05-202.24-0.0103-2.0116 33.201 9.8204-22.574 6e-3 -3e-3 -4.7824z" color="#000000" fill="#35d586" fill-rule="evenodd" stroke-linejoin="round" stroke-width="1.7846" style="-inkscape-stroke:none"/>
   </g>
   <g transform="matrix(-.3146 0 0 -.70612 -754.55 -276.88)" fill="#118c4f">
    <path d="m-177.27-199.18-44.13 0.0117v4.7578l44.132-0.01z" color="#000000" style="-inkscape-stroke:none"/>
    <path d="m-188.05-202.24-0.0103-2.0116 33.201 9.8204-22.574 6e-3 -3e-3 -4.7824z" color="#000000" fill="#118c4f" fill-rule="evenodd" stroke-linejoin="round" stroke-width="1.7846" style="-inkscape-stroke:none"/>
   </g>
   <g transform="matrix(.3146 0 0 .70612 -728.04 21.945)" fill="#35d586">
    <path d="m-177.27-199.18-44.13 0.0117v4.7578l44.132-0.01z" color="#000000" style="-inkscape-stroke:none"/>
    <path d="m-188.05-202.24-0.0103-2.0116 33.201 9.8204-22.574 6e-3 -3e-3 -4.7824z" color="#000000" fill="#35d586" fill-rule="evenodd" stroke-linejoin="round" stroke-width="1.7846" style="-inkscape-stroke:none"/>
   </g>
   <g transform="matrix(-.3146 0 0 -.70612 -888.74 -252.62)" fill="#35d586">
    <path d="m-177.27-199.18-44.13 0.0117v4.7578l44.132-0.01z" color="#000000" style="-inkscape-stroke:none"/>
    <path d="m-188.05-202.24-0.0103-2.0116 33.201 9.8204-22.574 6e-3 -3e-3 -4.7824z" color="#000000" fill="#35d586" fill-rule="evenodd" stroke-linejoin="round" stroke-width="1.7846" style="-inkscape-stroke:none"/>
   </g>
   <path d="m-672.68-157.48h28.996v4.8291h-23.091l-0.11683 37.288-5.7724-0.0121z" color="#000000" fill="#fff" stroke-width=".26458" style="-inkscape-stroke:none"/>
   <g transform="matrix(.3146 0 0 .70612 -596.61 -2.8157)" fill="#0b522f">
    <path d="m-177.27-199.18-44.13 0.0117v4.7578l44.132-0.01z" color="#000000" style="-inkscape-stroke:none"/>
    <path d="m-188.05-202.24-0.0103-2.0116 33.201 9.8204-22.574 6e-3 -3e-3 -4.7824z" color="#000000" fill="#0b522f" fill-rule="evenodd" stroke-linejoin="round" stroke-width="1.7846" style="-inkscape-stroke:none"/>
   </g>
   <g transform="matrix(-.3146 0 0 -.70612 -714.98 -276.33)" fill="#118c4f">
    <path d="m-177.27-199.18-44.13 0.0117v4.7578l44.132-0.01z" color="#000000" style="-inkscape-stroke:none"/>
    <path d="m-188.05-202.24-0.0103-2.0116 33.201 9.8204-22.574 6e-3 -3e-3 -4.7824z" color="#000000" fill="#118c4f" fill-rule="evenodd" stroke-linejoin="round" stroke-width="1.7846" style="-inkscape-stroke:none"/>
   </g>
   <path d="m-846.86-133.96h28.996v4.8291h-23.091l-0.11683 37.288-5.7724-0.0121z" color="#000000" stroke-width=".26458" style="-inkscape-stroke:none"/>
   <g transform="matrix(.3146 0 0 .70612 -770.26 20.698)" fill="#0b522f">
    <path d="m-177.27-199.18-44.13 0.0117v4.7578l44.132-0.01z" color="#000000" style="-inkscape-stroke:none"/>
    <path d="m-188.05-202.24-0.0103-2.0116 33.201 9.8204-22.574 6e-3 -3e-3 -4.7824z" color="#000000" fill="#0b522f" fill-rule="evenodd" stroke-linejoin="round" stroke-width="1.7846" style="-inkscape-stroke:none"/>
   </g>
   <g transform="matrix(-.3146 0 0 -.70612 -846.41 -251.13)" fill="#0b522f">
    <path d="m-177.27-199.18-44.13 0.0117v4.7578l44.132-0.01z" color="#000000" style="-inkscape-stroke:none"/>
    <path d="m-188.05-202.24-0.0103-2.0116 33.201 9.8204-22.574 6e-3 -3e-3 -4.7824z" color="#000000" fill="#0b522f" fill-rule="evenodd" stroke-linejoin="round" stroke-width="1.7846" style="-inkscape-stroke:none"/>
   </g>
   <path d="m-671.89-75.16v37.306h-3.175c-1.3229 0-2.6453-1.3203-2.6458-2.6458v-37.042c0-1.3229 1.3229-2.3812 2.6458-2.3812 9.4726 8.5e-5 14.347 0 23.812 0 1.3229 0 2.3812 1.0583 2.3812 2.3812 2e-4 0.91508 0 2.3812 0 2.3812s-15.871-6.06e-4 -23.019 0z" color="#000000" fill="#fff" stroke-width=".265"/>
   <g transform="matrix(.3146 0 0 .70612 -601.62 73.718)" fill="#0b522f">
    <path d="m-177.27-199.18-44.13 0.0117v4.7578l44.132-0.01z" color="#000000" style="-inkscape-stroke:none"/>
    <path d="m-188.05-202.24-0.0103-2.0116 33.201 9.8204-22.574 6e-3 -3e-3 -4.7824z" color="#000000" fill="#0b522f" fill-rule="evenodd" stroke-linejoin="round" stroke-width="1.7846" style="-inkscape-stroke:none"/>
   </g>
   <g transform="matrix(-.3146 0 0 -.70612 -719.99 -199.79)" fill="#118c4f">
    <path d="m-177.27-199.18-44.13 0.0117v4.7578l44.132-0.01z" color="#000000" style="-inkscape-stroke:none"/>
    <path d="m-188.05-202.24-0.0103-2.0116 33.201 9.8204-22.574 6e-3 -3e-3 -4.7824z" color="#000000" fill="#118c4f" fill-rule="evenodd" stroke-linejoin="round" stroke-width="1.7846" style="-inkscape-stroke:none"/>
   </g>
   <path d="m-631.41-76.218v37.306h-3.175c-1.3229 0-2.6453-1.3203-2.6458-2.6458v-37.042c0-1.3229 1.3229-2.3812 2.6458-2.3812 9.4726 8.5e-5 14.347 0 23.812 0 1.3229 0 2.3812 1.0583 2.3812 2.3812 2e-4 0.91508 0 2.3812 0 2.3812s-15.871-6.06e-4 -23.019 0z" color="#000000" stroke-width=".265"/>
   <g transform="matrix(.3146 0 0 .70612 -561.14 72.659)" fill="#0b522f">
    <path d="m-177.27-199.18-44.13 0.0117v4.7578l44.132-0.01z" color="#000000" style="-inkscape-stroke:none"/>
    <path d="m-188.05-202.24-0.0103-2.0116 33.201 9.8204-22.574 6e-3 -3e-3 -4.7824z" color="#000000" fill="#0b522f" fill-rule="evenodd" stroke-linejoin="round" stroke-width="1.7846" style="-inkscape-stroke:none"/>
   </g>
   <g transform="matrix(-.3146 0 0 -.70612 -679.51 -200.85)" fill="#118c4f">
    <path d="m-177.27-199.18-44.13 0.0117v4.7578l44.132-0.01z" color="#000000" style="-inkscape-stroke:none"/>
    <path d="m-188.05-202.24-0.0103-2.0116 33.201 9.8204-22.574 6e-3 -3e-3 -4.7824z" color="#000000" fill="#118c4f" fill-rule="evenodd" stroke-linejoin="round" stroke-width="1.7846" style="-inkscape-stroke:none"/>
   </g>
   <path d="m-632.77-157.73h28.996v4.8291h-23.091l-0.11683 37.288-5.7724-0.0121z" color="#000000" fill="#cecece" stroke-width=".26458" style="-inkscape-stroke:none"/>
   <g transform="matrix(.3146 0 0 .70612 -556.7 -3.0661)" fill="#35d586">
    <path d="m-177.27-199.18-44.13 0.0117v4.7578l44.132-0.01z" color="#000000" style="-inkscape-stroke:none"/>
    <path d="m-188.05-202.24-0.0103-2.0116 33.201 9.8204-22.574 6e-3 -3e-3 -4.7824z" color="#000000" fill="#35d586" fill-rule="evenodd" stroke-linejoin="round" stroke-width="1.7846" style="-inkscape-stroke:none"/>
   </g>
   <g transform="matrix(-.3146 0 0 -.70612 -675.07 -276.58)" fill="#118c4f">
    <path d="m-177.27-199.18-44.13 0.0117v4.7578l44.132-0.01z" color="#000000" style="-inkscape-stroke:none"/>
    <path d="m-188.05-202.24-0.0103-2.0116 33.201 9.8204-22.574 6e-3 -3e-3 -4.7824z" color="#000000" fill="#118c4f" fill-rule="evenodd" stroke-linejoin="round" stroke-width="1.7846" style="-inkscape-stroke:none"/>
   </g>
  </g>
  <path d="m-504.64-138.86h28.996v4.8291h-23.091l-0.11683 37.288-5.7724-0.0121z" color="#000000" stroke-width=".26458" style="-inkscape-stroke:none"/>
  <g transform="matrix(.3146 0 0 .70612 -428.57 15.798)" fill="#118c8c">
   <path d="m-177.27-199.18-44.13 0.0117v4.7578l44.132-0.01z" color="#000000" style="-inkscape-stroke:none"/>
   <path d="m-188.05-202.24-0.0103-2.0116 33.201 9.8204-22.574 6e-3 -3e-3 -4.7824z" color="#000000" fill="#118c8c" fill-rule="evenodd" stroke-linejoin="round" stroke-width="1.7846" style="-inkscape-stroke:none"/>
  </g>
  <g transform="matrix(-.3146 0 0 -.70612 -546.94 -257.71)" fill="#184f4f">
   <path d="m-177.27-199.18-44.13 0.0117v4.7578l44.132-0.01z" color="#000000" style="-inkscape-stroke:none"/>
   <path d="m-188.05-202.24-0.0103-2.0116 33.201 9.8204-22.574 6e-3 -3e-3 -4.7824z" color="#000000" fill="#184f4f" fill-rule="evenodd" stroke-linejoin="round" stroke-width="1.7846" style="-inkscape-stroke:none"/>
  </g>
  <g transform="translate(-.47273 -11.712)">
   <path d="m-274.2-90.84h28.996v4.8291h-23.091l-0.11683 37.288-5.7724-0.0121z" color="#000000" stroke-width=".26458" style="-inkscape-stroke:none"/>
   <g transform="matrix(.3146 0 0 .70612 -198.14 63.822)">
    <path d="m-177.27-199.18-44.13 0.0117v4.7578l44.132-0.01z" color="#000000" style="-inkscape-stroke:none"/>
    <path d="m-188.05-202.24-0.0103-2.0116 33.201 9.8204-22.574 6e-3 -3e-3 -4.7824z" color="#000000" fill-rule="evenodd" stroke-linejoin="round" stroke-width="1.7846" style="-inkscape-stroke:none"/>
   </g>
   <g transform="matrix(-.3146 0 0 -.70612 -316.51 -209.69)">
    <path d="m-177.27-199.18-44.13 0.0117v4.7578l44.132-0.01z" color="#000000" style="-inkscape-stroke:none"/>
    <path d="m-188.05-202.24-0.0103-2.0116 33.201 9.8204-22.574 6e-3 -3e-3 -4.7824z" color="#000000" fill-rule="evenodd" stroke-linejoin="round" stroke-width="1.7846" style="-inkscape-stroke:none"/>
   </g>
  </g>
  <g transform="translate(-97.29 -123.05)">
   <path d="m-274.2-90.84h28.996v4.8291h-23.091l-0.11683 37.288-5.7724-0.0121z" color="#000000" stroke-width=".26458" style="-inkscape-stroke:none"/>
   <g transform="matrix(.3146 0 0 .70612 -198.14 63.822)">
    <path d="m-177.27-199.18-44.13 0.0117v4.7578l44.132-0.01z" color="#000000" style="-inkscape-stroke:none"/>
    <path d="m-188.05-202.24-0.0103-2.0116 33.201 9.8204-22.574 6e-3 -3e-3 -4.7824z" color="#000000" fill-rule="evenodd" stroke-linejoin="round" stroke-width="1.7846" style="-inkscape-stroke:none"/>
   </g>
   <g transform="matrix(-.3146 0 0 -.70612 -316.51 -209.69)">
    <path d="m-177.27-199.18-44.13 0.0117v4.7578l44.132-0.01z" color="#000000" style="-inkscape-stroke:none"/>
    <path d="m-188.05-202.24-0.0103-2.0116 33.201 9.8204-22.574 6e-3 -3e-3 -4.7824z" color="#000000" fill-rule="evenodd" stroke-linejoin="round" stroke-width="1.7846" style="-inkscape-stroke:none"/>
   </g>
  </g>
  <path d="m-308.96-243.43h28.996v4.8291h-23.091l-0.11683 37.288-5.7724-0.0121z" color="#000000" fill="#666" stroke-width=".26458" style="-inkscape-stroke:none"/>
  <g transform="matrix(.3146 0 0 .70612 -232.89 -88.771)" fill="#118c8c">
   <path d="m-177.27-199.18-44.13 0.0117v4.7578l44.132-0.01z" color="#000000" style="-inkscape-stroke:none"/>
   <path d="m-188.05-202.24-0.0103-2.0116 33.201 9.8204-22.574 6e-3 -3e-3 -4.7824z" color="#000000" fill="#118c8c" fill-rule="evenodd" style="-inkscape-stroke:none"/>
  </g>
  <g fill="#118c4f">
   <g transform="matrix(-.3146 0 0 -.70612 -351.26 -362.28)">
    <path d="m-177.27-199.18-44.13 0.0117v4.7578l44.132-0.01z" color="#000000" style="-inkscape-stroke:none"/>
    <path d="m-188.05-202.24-0.0103-2.0116 33.201 9.8204-22.574 6e-3 -3e-3 -4.7824z" color="#000000" fill="#118c4f" fill-rule="evenodd" style="-inkscape-stroke:none"/>
   </g>
   <rect x="-361.67" y="-98.338" width="1.8056" height="2.4777"/>
   <rect x="-533.69" y="-102.85" width="1.5859" height="2.8604"/>
   <rect transform="scale(1,-1)" x="-440.58" y="162.08" width="2.6848" height="4.1966"/>
   <rect x="-451.67" y="1.3921" width="2.7048" height="2.1792"/>
   <g stroke-width="4.759">
    <ellipse cx="-744.69" cy="-162.78" rx=".29545" ry=".36457"/>
    <ellipse cx="-851.57" cy="126.07" rx=".49986" ry=".4846"/>
    <ellipse cx="-572.15" cy="-174.15" rx=".46637" ry="1.236"/>
    <ellipse cx="-669.45" cy="-226.31" rx=".48294" ry=".17091"/>
   </g>
  </g>
  <g fill="#008000">
   <circle cx="-700.9" cy="-61.417" r=".0088244" stroke="#000" stroke-width=".26458"/>
   <circle cx="-700.9" cy="-61.417" r=".0088244" stroke="#000" stroke-width=".26458"/>
   <g>
    <ellipse cx="-698.87" cy="-62.328" rx="1.5401e-11" ry=".66146" stroke-width=".265"/>
    <circle cx="-897.38" cy="59.596" r=".66146" stroke-width=".265"/>
    <ellipse cx="-850.35" cy="-1.8539" rx=".66146" ry=".28112" stroke-width=".17276"/>
    <ellipse cx="-804.53" cy="59.314" rx=".3591" ry=".53758" stroke-width=".088012"/>
   </g>
  </g>
  <g>
   <path d="m-804.44-133.66h28.996v4.8291h-23.091l-0.11683 37.288-5.7724-0.0121z" color="#000000" stroke-width=".26458" style="-inkscape-stroke:none"/>
   <g transform="matrix(.3146 0 0 .70612 -727.87 83.152)" fill="#35d586">
    <path d="m-177.27-199.18-44.13 0.0117v4.7578l44.132-0.01z" color="#000000" style="-inkscape-stroke:none"/>
    <path d="m-188.05-202.24-0.0103-2.0116 33.201 9.8204-22.574 6e-3 -3e-3 -4.7824z" color="#000000" fill="#35d586" fill-rule="evenodd" stroke-linejoin="round" stroke-width="1.7846" style="-inkscape-stroke:none"/>
   </g>
   <g transform="matrix(-.3146 0 0 -.70612 -890.16 -191.42)" fill="#35d586">
    <path d="m-177.27-199.18-44.13 0.0117v4.7578l44.132-0.01z" color="#000000" style="-inkscape-stroke:none"/>
    <path d="m-188.05-202.24-0.0103-2.0116 33.201 9.8204-22.574 6e-3 -3e-3 -4.7824z" color="#000000" fill="#35d586" fill-rule="evenodd" stroke-linejoin="round" stroke-width="1.7846" style="-inkscape-stroke:none"/>
   </g>
   <g transform="matrix(.3146 0 0 .70612 -771.68 81.905)" fill="#0b522f">
    <path d="m-177.27-199.18-44.13 0.0117v4.7578l44.132-0.01z" color="#000000" style="-inkscape-stroke:none"/>
    <path d="m-188.05-202.24-0.0103-2.0116 33.201 9.8204-22.574 6e-3 -3e-3 -4.7824z" color="#000000" fill="#0b522f" fill-rule="evenodd" stroke-linejoin="round" stroke-width="1.7846" style="-inkscape-stroke:none"/>
   </g>
   <g transform="matrix(-.3146 0 0 -.70612 -846.24 -189.92)" fill="#0b522f">
    <path d="m-177.27-199.18-44.13 0.0117v4.7578l44.132-0.01z" color="#000000" style="-inkscape-stroke:none"/>
    <path d="m-188.05-202.24-0.0103-2.0116 33.201 9.8204-22.574 6e-3 -3e-3 -4.7824z" color="#000000" fill="#0b522f" fill-rule="evenodd" stroke-linejoin="round" stroke-width="1.7846" style="-inkscape-stroke:none"/>
   </g>
   <path d="m-804.27-72.458h28.996l-4.4416 4.8291h-18.649l-0.11683 37.288-5.7724-0.0121z" color="#000000" stroke-width=".26458" style="-inkscape-stroke:none"/>
   <path d="m-847.8-72.297h28.996l-4.4416 4.8291h-18.649l-0.11683 37.288-5.7724-0.0121z" color="#000000" stroke-width=".26458" style="-inkscape-stroke:none"/>
   <g transform="matrix(.3146 0 0 .70612 -560.37 200.61)" fill="#35d586">
    <path d="m-177.27-199.18-44.13 0.0117v4.7578l44.132-0.01z" color="#000000" style="-inkscape-stroke:none"/>
    <path d="m-188.05-202.24-0.0103-2.0116 33.201 9.8204-22.574 6e-3 -3e-3 -4.7824z" color="#000000" fill="#35d586" fill-rule="evenodd" stroke-linejoin="round" stroke-width="1.7846" style="-inkscape-stroke:none"/>
   </g>
   <g transform="matrix(-.26834 0 0 -.70612 -715.58 -73.961)" fill="#35d586">
    <path d="m-177.27-199.18-44.13 0.0117v4.7578l44.132-0.01z" color="#000000" style="-inkscape-stroke:none"/>
    <path d="m-188.05-202.24-0.0103-2.0116 33.201 9.8204-22.574 6e-3 -3e-3 -4.7824z" color="#000000" fill="#35d586" fill-rule="evenodd" stroke-linejoin="round" stroke-width="1.7846" style="-inkscape-stroke:none"/>
   </g>
   <g transform="matrix(.26834 0 0 .70612 -614.52 199.36)" fill="#0b522f">
    <path d="m-177.27-199.18-44.13 0.0117v4.7578l44.132-0.01z" color="#000000" style="-inkscape-stroke:none"/>
    <path d="m-188.05-202.24-0.0103-2.0116 33.201 9.8204-22.574 6e-3 -3e-3 -4.7824z" color="#000000" fill="#0b522f" fill-rule="evenodd" stroke-linejoin="round" stroke-width="1.7846" style="-inkscape-stroke:none"/>
   </g>
   <g transform="matrix(-.3146 0 0 -.70612 -678.74 -72.464)" fill="#0b522f">
    <path d="m-177.27-199.18-44.13 0.0117v4.7578l44.132-0.01z" color="#000000" style="-inkscape-stroke:none"/>
    <path d="m-188.05-202.24-0.0103-2.0116 33.201 9.8204-22.574 6e-3 -3e-3 -4.7824z" color="#000000" fill="#0b522f" fill-rule="evenodd" stroke-linejoin="round" stroke-width="1.7846" style="-inkscape-stroke:none"/>
   </g>
   <path d="m-638.89 44.999h34.288l-4.4416 4.8291h-23.941l-0.11683 37.288-5.7724-0.0121z" color="#000000" stroke-width=".26458" style="-inkscape-stroke:none"/>
   <g transform="matrix(.3146 0 0 .70612 -560.6 251.34)" fill="#35d586">
    <path d="m-177.27-199.18-44.13 0.0117v4.7578l44.132-0.01z" color="#000000" style="-inkscape-stroke:none"/>
    <path d="m-188.05-202.24-0.0103-2.0116 33.201 9.8204-22.574 6e-3 -3e-3 -4.7824z" color="#000000" fill="#35d586" fill-rule="evenodd" stroke-linejoin="round" stroke-width="1.7846" style="-inkscape-stroke:none"/>
   </g>
   <g transform="matrix(-.3146 0 0 -.70612 -678.97 -21.735)" fill="#0b522f">
    <path d="m-177.27-199.18-44.13 0.0117v4.7578l44.132-0.01z" color="#000000" style="-inkscape-stroke:none"/>
    <path d="m-188.05-202.24-0.0103-2.0116 33.201 9.8204-22.574 6e-3 -3e-3 -4.7824z" color="#000000" fill="#0b522f" fill-rule="evenodd" stroke-linejoin="round" stroke-width="1.7846" style="-inkscape-stroke:none"/>
   </g>
   <path d="m-639.12 95.728h34.288l-4.4416 4.8291h-23.941l-0.11683 37.288-5.7724-0.0121z" color="#000000" fill="#fff" stroke-width=".26458" style="-inkscape-stroke:none"/>
   <g transform="matrix(.3146 0 0 .70612 -511.81 200.47)" fill="#35d586">
    <path d="m-177.27-199.18-44.13 0.0117v4.7578l44.132-0.01z" color="#000000" style="-inkscape-stroke:none"/>
    <path d="m-188.05-202.24-0.0103-2.0116 33.201 9.8204-22.574 6e-3 -3e-3 -4.7824z" color="#000000" fill="#35d586" fill-rule="evenodd" stroke-linejoin="round" stroke-width="1.7846" style="-inkscape-stroke:none"/>
   </g>
   <g transform="matrix(-.3146 0 0 -.70612 -630.18 -72.601)" fill="#0b522f">
    <path d="m-177.27-199.18-44.13 0.0117v4.7578l44.132-0.01z" color="#000000" style="-inkscape-stroke:none"/>
    <path d="m-188.05-202.24-0.0103-2.0116 33.201 9.8204-22.574 6e-3 -3e-3 -4.7824z" color="#000000" fill="#0b522f" fill-rule="evenodd" stroke-linejoin="round" stroke-width="1.7846" style="-inkscape-stroke:none"/>
   </g>
   <path d="m-590.33 44.862h34.288l-4.4416 4.8291h-23.941l-0.11683 21.943-5.7724-0.0121z" color="#000000" stroke-width=".26458" style="-inkscape-stroke:none"/>
   <g transform="matrix(.3146 0 0 .70612 -512.04 251.2)" fill="#35d586">
    <path d="m-177.27-199.18-44.13 0.0117v4.7578l44.132-0.01z" color="#000000" style="-inkscape-stroke:none"/>
    <path d="m-188.05-202.24-0.0103-2.0116 33.201 9.8204-22.574 6e-3 -3e-3 -4.7824z" color="#000000" fill="#35d586" fill-rule="evenodd" stroke-linejoin="round" stroke-width="1.7846" style="-inkscape-stroke:none"/>
   </g>
   <g transform="matrix(-.3146 0 0 -.70612 -630.42 -21.873)" fill="#0b522f">
    <path d="m-177.27-199.18-44.13 0.0117v4.7578l44.132-0.01z" color="#000000" style="-inkscape-stroke:none"/>
    <path d="m-188.05-202.24-0.0103-2.0116 33.201 9.8204-22.574 6e-3 -3e-3 -4.7824z" color="#000000" fill="#0b522f" fill-rule="evenodd" stroke-linejoin="round" stroke-width="1.7846" style="-inkscape-stroke:none"/>
   </g>
   <path d="m-590.57 95.591h34.288l-4.4416 4.8291h-23.941l-0.11683 21.943-5.7724-0.0121z" color="#000000" fill="#fff" stroke-width=".26458" style="-inkscape-stroke:none"/>
   <path d="m-682.42 45.16h28.996l-4.4416 4.8291h-18.649l-0.11683 37.288-5.7724-0.0121z" color="#000000" stroke-width=".26458" style="-inkscape-stroke:none"/>
   <g transform="matrix(-.26834 0 0 -.70612 -715.17 -22.888)" fill="#35d586">
    <path d="m-177.27-199.18-44.13 0.0117v4.7578l44.132-0.01z" color="#000000" style="-inkscape-stroke:none"/>
    <path d="m-188.05-202.24-0.0103-2.0116 33.201 9.8204-22.574 6e-3 -3e-3 -4.7824z" color="#000000" fill="#35d586" fill-rule="evenodd" stroke-linejoin="round" stroke-width="1.7846" style="-inkscape-stroke:none"/>
   </g>
   <g transform="matrix(.26834 0 0 .70612 -614.11 250.43)" fill="#0b522f">
    <path d="m-177.27-199.18-44.13 0.0117v4.7578l44.132-0.01z" color="#000000" style="-inkscape-stroke:none"/>
    <path d="m-188.05-202.24-0.0103-2.0116 33.201 9.8204-22.574 6e-3 -3e-3 -4.7824z" color="#000000" fill="#0b522f" fill-rule="evenodd" stroke-linejoin="round" stroke-width="1.7846" style="-inkscape-stroke:none"/>
   </g>
   <path d="m-682.02 96.233h28.996l-4.4416 4.8291h-18.649l-0.11683 37.288-5.7724-0.0121z" color="#000000" fill="#fff" stroke-width=".26458" style="-inkscape-stroke:none"/>
   <g transform="matrix(-.26834 0 0 -.70612 -752.77 -73.928)" fill="#35d586">
    <path d="m-177.27-199.18-44.13 0.0117v4.7578l44.132-0.01z" color="#000000" style="-inkscape-stroke:none"/>
    <path d="m-188.05-202.24-0.0103-2.0116 33.201 9.8204-22.574 6e-3 -3e-3 -4.7824z" color="#000000" fill="#35d586" fill-rule="evenodd" stroke-linejoin="round" stroke-width="1.7846" style="-inkscape-stroke:none"/>
   </g>
   <g transform="matrix(.26834 0 0 .70612 -651.72 199.39)" fill="#0b522f">
    <path d="m-177.27-199.18-44.13 0.0117v4.7578l44.132-0.01z" color="#000000" style="-inkscape-stroke:none"/>
    <path d="m-188.05-202.24-0.0103-2.0116 33.201 9.8204-22.574 6e-3 -3e-3 -4.7824z" color="#000000" fill="#0b522f" fill-rule="evenodd" stroke-linejoin="round" stroke-width="1.7846" style="-inkscape-stroke:none"/>
   </g>
   <path d="m-719.62 45.192h28.996l-4.4416 4.8291h-18.649l-0.11683 26.705-5.7724 10.571z" color="#000000" stroke-width=".26458" style="-inkscape-stroke:none"/>
   <g transform="matrix(-.26834 0 0 -.70612 -752.37 -22.856)" fill="#35d586">
    <path d="m-177.27-199.18-44.13 0.0117v4.7578l44.132-0.01z" color="#000000" style="-inkscape-stroke:none"/>
    <path d="m-188.05-202.24-0.0103-2.0116 33.201 9.8204-22.574 6e-3 -3e-3 -4.7824z" color="#000000" fill="#35d586" fill-rule="evenodd" stroke-linejoin="round" stroke-width="1.7846" style="-inkscape-stroke:none"/>
   </g>
   <g transform="matrix(.26834 0 0 .70612 -651.31 250.47)" fill="#0b522f">
    <path d="m-177.27-199.18-44.13 0.0117v4.7578l44.132-0.01z" color="#000000" style="-inkscape-stroke:none"/>
    <path d="m-188.05-202.24-0.0103-2.0116 33.201 9.8204-22.574 6e-3 -3e-3 -4.7824z" color="#000000" fill="#0b522f" fill-rule="evenodd" stroke-linejoin="round" stroke-width="1.7846" style="-inkscape-stroke:none"/>
   </g>
   <path d="m-719.21 96.265h28.996l-4.4416 4.8291h-18.649l-0.11683 26.705-5.7724 10.571z" color="#000000" fill="#fff" stroke-width=".26458" style="-inkscape-stroke:none"/>
   <g transform="matrix(-.26834 0 0 -.70612 -876.31 -108.72)" fill="#35d586">
    <path d="m-177.27-199.18-44.13 0.0117v4.7578l44.132-0.01z" color="#000000" style="-inkscape-stroke:none"/>
    <path d="m-188.05-202.24-0.0103-2.0116 33.201 9.8204-22.574 6e-3 -3e-3 -4.7824z" color="#000000" fill="#35d586" fill-rule="evenodd" stroke-linejoin="round" stroke-width="1.7846" style="-inkscape-stroke:none"/>
   </g>
   <g transform="matrix(.26834 0 0 .70612 -775.25 164.6)" fill="#0b522f">
    <path d="m-177.27-199.18-44.13 0.0117v4.7578l44.132-0.01z" color="#000000" style="-inkscape-stroke:none"/>
    <path d="m-188.05-202.24-0.0103-2.0116 33.201 9.8204-22.574 6e-3 -3e-3 -4.7824z" color="#000000" fill="#0b522f" fill-rule="evenodd" stroke-linejoin="round" stroke-width="1.7846" style="-inkscape-stroke:none"/>
   </g>
   <path d="m-843.15 9.9767h28.996l-4.4416 5.2505h-18.649l-0.11683 26.705-5.7724 10.571z" color="#000000" stroke-width=".26458" style="-inkscape-stroke:none"/>
   <g transform="matrix(-.26834 0 0 -.70612 -919.48 -108.2)" fill="#35d586">
    <path d="m-177.27-199.18-44.13 0.0117v4.7578l44.132-0.01z" color="#000000" style="-inkscape-stroke:none"/>
    <path d="m-188.05-202.24-0.0103-2.0116 33.201 9.8204-22.574 6e-3 -3e-3 -4.7824z" color="#000000" fill="#35d586" fill-rule="evenodd" stroke-linejoin="round" stroke-width="1.7846" style="-inkscape-stroke:none"/>
   </g>
   <g transform="matrix(.26834 0 0 .70612 -818.43 165.12)" fill="#0b522f">
    <path d="m-177.27-199.18-44.13 0.0117v4.7578l44.132-0.01z" color="#000000" style="-inkscape-stroke:none"/>
    <path d="m-188.05-202.24-0.0103-2.0116 33.201 9.8204-22.574 6e-3 -3e-3 -4.7824z" color="#000000" fill="#0b522f" fill-rule="evenodd" stroke-linejoin="round" stroke-width="1.7846" style="-inkscape-stroke:none"/>
   </g>
   <path d="m-886.33 9.9767h28.996l-4.4416 5.7727h-18.649l-0.11684 26.705-5.7724 10.571z" color="#000000" fill="#fff" stroke-width=".26458" style="-inkscape-stroke:none"/>
   <g transform="matrix(-.26834 0 0 -.70612 -875.83 -51.066)" fill="#35d586">
    <path d="m-177.27-199.18-44.13 0.0117v4.7578l44.132-0.01z" color="#000000" style="-inkscape-stroke:none"/>
    <path d="m-188.05-202.24-0.0103-2.0116 33.201 9.8204-22.574 6e-3 -3e-3 -4.7824z" color="#000000" fill="#35d586" fill-rule="evenodd" stroke-linejoin="round" stroke-width="1.7846" style="-inkscape-stroke:none"/>
   </g>
   <g transform="matrix(.26834 0 0 .70612 -774.78 222.26)" fill="#0b522f">
    <path d="m-177.27-199.18-44.13 0.0117v4.7578l44.132-0.01z" color="#000000" style="-inkscape-stroke:none"/>
    <path d="m-188.05-202.24-0.0103-2.0116 33.201 9.8204-22.574 6e-3 -3e-3 -4.7824z" color="#000000" fill="#0b522f" fill-rule="evenodd" stroke-linejoin="round" stroke-width="1.7846" style="-inkscape-stroke:none"/>
   </g>
   <path d="m-842.68 67.633h31.113l-4.4416 5.2505h-20.766l-0.11683 26.705-5.7724 10.571z" color="#000000" stroke-width=".26458" style="-inkscape-stroke:none"/>
   <g transform="matrix(-.26834 0 0 -.70612 -920.06 -50.544)" fill="#35d586">
    <path d="m-177.27-199.18-44.13 0.0117v4.7578l44.132-0.01z" color="#000000" style="-inkscape-stroke:none"/>
    <path d="m-188.05-202.24-0.0103-2.0116 33.201 9.8204-22.574 6e-3 -3e-3 -4.7824z" color="#000000" fill="#35d586" fill-rule="evenodd" stroke-linejoin="round" stroke-width="1.7846" style="-inkscape-stroke:none"/>
   </g>
   <g transform="matrix(.26834 0 0 .70612 -819.01 222.78)" fill="#0b522f">
    <path d="m-177.27-199.18-44.13 0.0117v4.7578l44.132-0.01z" color="#000000" style="-inkscape-stroke:none"/>
    <path d="m-188.05-202.24-0.0103-2.0116 33.201 9.8204-22.574 6e-3 -3e-3 -4.7824z" color="#000000" fill="#0b522f" fill-rule="evenodd" stroke-linejoin="round" stroke-width="1.7846" style="-inkscape-stroke:none"/>
   </g>
   <path d="m-886.91 67.633h31.113l-4.4416 5.7727h-20.766l-0.11684 26.705-5.7724 10.571z" color="#000000" fill="#fff" stroke-width=".26458" style="-inkscape-stroke:none"/>
   <g transform="matrix(-.26834 0 0 -.70612 -1027 -96.447)" fill="#35d586">
    <path d="m-177.27-199.18-44.13 0.0117v4.7578l44.132-0.01z" color="#000000" style="-inkscape-stroke:none"/>
    <path d="m-188.05-202.24-0.0103-2.0116 33.201 9.8204-22.574 6e-3 -3e-3 -4.7824z" color="#000000" fill="#35d586" fill-rule="evenodd" stroke-linejoin="round" stroke-width="1.7846" style="-inkscape-stroke:none"/>
   </g>
   <g transform="matrix(.26834 0 0 .70612 -925.99 176.88)" fill="#0b522f">
    <path d="m-177.27-199.18-44.13 0.0117v4.7578l44.132-0.01z" color="#000000" style="-inkscape-stroke:none"/>
    <path d="m-188.05-202.24-0.0103-2.0116 33.201 9.8204-22.574 6e-3 -3e-3 -4.7824z" color="#000000" fill="#0b522f" fill-rule="evenodd" stroke-linejoin="round" stroke-width="1.7846" style="-inkscape-stroke:none"/>
   </g>
   <path d="m-993.89 21.73h31.113l-4.4416 5.7727h-20.766l-0.11684 26.705-5.7724 10.571z" color="#000000" fill="#fff" stroke-width=".26458" style="-inkscape-stroke:none"/>
   <g transform="matrix(-.26834 0 0 -.70612 -985.2 -96.811)" fill="#35d586">
    <path d="m-177.27-199.18-44.13 0.0117v4.7578l44.132-0.01z" color="#000000" style="-inkscape-stroke:none"/>
    <path d="m-188.05-202.24-0.0103-2.0116 33.201 9.8204-22.574 6e-3 -3e-3 -4.7824z" color="#000000" fill="#35d586" fill-rule="evenodd" stroke-linejoin="round" stroke-width="1.7846" style="-inkscape-stroke:none"/>
   </g>
   <g transform="matrix(.26834 0 0 .70612 -884.15 176.51)" fill="#0b522f">
    <path d="m-177.27-199.18-44.13 0.0117v4.7578l44.132-0.01z" color="#000000" style="-inkscape-stroke:none"/>
    <path d="m-188.05-202.24-0.0103-2.0116 33.201 9.8204-22.574 6e-3 -3e-3 -4.7824z" color="#000000" fill="#0b522f" fill-rule="evenodd" stroke-linejoin="round" stroke-width="1.7846" style="-inkscape-stroke:none"/>
   </g>
  </g>
  <g>
   <path d="m-952.05 21.366h31.113l-4.4416 5.7727h-20.766l-0.11684 26.705-5.7724 10.571z" color="#000000" stroke-width=".26458" style="-inkscape-stroke:none"/>
   <g transform="matrix(-.26834 0 0 -.70612 -1027.2 -45.556)">
    <path d="m-177.27-199.18-44.13 0.0117v4.7578l44.132-0.01z" color="#000000" style="-inkscape-stroke:none"/>
    <path d="m-188.05-202.24-0.0103-2.0116 33.201 9.8204-22.574 6e-3 -3e-3 -4.7824z" color="#000000" fill-rule="evenodd" stroke-linejoin="round" stroke-width="1.7846" style="-inkscape-stroke:none"/>
   </g>
   <g transform="matrix(.26834 0 0 .70612 -926.17 227.77)">
    <path d="m-177.27-199.18-44.13 0.0117v4.7578l44.132-0.01z" color="#000000" style="-inkscape-stroke:none"/>
    <path d="m-188.05-202.24-0.0103-2.0116 33.201 9.8204-22.574 6e-3 -3e-3 -4.7824z" color="#000000" fill-rule="evenodd" stroke-linejoin="round" stroke-width="1.7846" style="-inkscape-stroke:none"/>
   </g>
   <path d="m-994.07 72.621h31.113l-4.4416 5.7727h-20.766l-0.11684 26.705-5.7724 10.571z" color="#000000" stroke-width=".26458" style="-inkscape-stroke:none"/>
  </g>
  <g>
   <g transform="matrix(-.26834 0 0 -.70612 -796.6 -72.201)" fill="#35d586">
    <path d="m-177.27-199.18-44.13 0.0117v4.7578l44.132-0.01z" color="#000000" style="-inkscape-stroke:none"/>
    <path d="m-188.05-202.24-0.0103-2.0116 33.201 9.8204-22.574 6e-3 -3e-3 -4.7824z" color="#000000" fill="#35d586" fill-rule="evenodd" stroke-linejoin="round" stroke-width="1.7846" style="-inkscape-stroke:none"/>
   </g>
   <g transform="matrix(.26834 0 0 .70612 -695.54 201.12)" fill="#0b522f">
    <path d="m-177.27-199.18-44.13 0.0117v4.7578l44.132-0.01z" color="#000000" style="-inkscape-stroke:none"/>
    <path d="m-188.05-202.24-0.0103-2.0116 33.201 9.8204-22.574 6e-3 -3e-3 -4.7824z" color="#000000" fill="#0b522f" fill-rule="evenodd" stroke-linejoin="round" stroke-width="1.7846" style="-inkscape-stroke:none"/>
   </g>
   <path d="m-763.44 46.92h28.996l-4.4416 4.8291h-18.649l-0.11683 21.413-5.7724-0.0121z" color="#000000" stroke-width=".26458" style="-inkscape-stroke:none"/>
   <g transform="matrix(-.26834 0 0 -.70612 -796.19 -21.128)" fill="#35d586">
    <path d="m-177.27-199.18-44.13 0.0117v4.7578l44.132-0.01z" color="#000000" style="-inkscape-stroke:none"/>
    <path d="m-188.05-202.24-0.0103-2.0116 33.201 9.8204-22.574 6e-3 -3e-3 -4.7824z" color="#000000" fill="#35d586" fill-rule="evenodd" stroke-linejoin="round" stroke-width="1.7846" style="-inkscape-stroke:none"/>
   </g>
   <g transform="matrix(.26834 0 0 .70612 -695.13 252.19)" fill="#0b522f">
    <path d="m-177.27-199.18-44.13 0.0117v4.7578l44.132-0.01z" color="#000000" style="-inkscape-stroke:none"/>
    <path d="m-188.05-202.24-0.0103-2.0116 33.201 9.8204-22.574 6e-3 -3e-3 -4.7824z" color="#000000" fill="#0b522f" fill-rule="evenodd" stroke-linejoin="round" stroke-width="1.7846" style="-inkscape-stroke:none"/>
   </g>
   <path d="m-763.04 97.993h28.996l-4.4416 4.8291h-18.649l-0.11683 21.413-5.7724-0.0121z" color="#000000" fill="#fff" stroke-width=".26458" style="-inkscape-stroke:none"/>
  </g>
 </g>
</svg>
