<?xml version="1.0" encoding="UTF-8"?>
<svg xmlns="http://www.w3.org/2000/svg" xmlns:xlink="http://www.w3.org/1999/xlink" viewBox="0 0 24 24" width="24px" height="24px">
<g id="surface52157374">
<path style=" stroke:none;fill-rule:nonzero;fill:rgb(20.784314%,81.568629%,50.980395%);fill-opacity:1;" d="M 12 2 C 9.800781 2 8 3.800781 8 6 L 8 8 L 6.25 8 C 5.015625 8 4 9.015625 4 10.25 L 4 19.75 C 4 20.984375 5.015625 22 6.25 22 L 17.75 22 C 18.984375 22 20 20.984375 20 19.75 L 20 10.25 C 20 9.015625 18.984375 8 17.75 8 L 16 8 L 16 6 C 16 3.800781 14.199219 2 12 2 Z M 12 3.5 C 13.390625 3.5 14.5 4.609375 14.5 6 L 14.5 8 L 9.5 8 L 9.5 6 C 9.5 4.609375 10.609375 3.5 12 3.5 Z M 6.25 9.5 L 17.75 9.5 C 18.171875 9.5 18.5 9.828125 18.5 10.25 L 18.5 19.75 C 18.5 20.171875 18.171875 20.5 17.75 20.5 L 6.25 20.5 C 5.828125 20.5 5.5 20.171875 5.5 19.75 L 5.5 10.25 C 5.5 9.828125 5.828125 9.5 6.25 9.5 Z M 12 13.5 C 11.171875 13.5 10.5 14.171875 10.5 15 C 10.5 15.828125 11.171875 16.5 12 16.5 C 12.828125 16.5 13.5 15.828125 13.5 15 C 13.5 14.171875 12.828125 13.5 12 13.5 Z M 12 13.5 "/>
</g>
</svg>
