<?xml version="1.0" encoding="UTF-8"?>
<svg xmlns="http://www.w3.org/2000/svg" xmlns:xlink="http://www.w3.org/1999/xlink" viewBox="0 0 24 24" width="24px" height="24px">
<g id="surface132092686">
<path style=" stroke:none;fill-rule:nonzero;fill:rgb(0%,0%,0%);fill-opacity:1;" d="M 12 24 C 5.371094 24 0 18.628906 0 12 C 0 5.371094 5.371094 0 12 0 C 18.628906 0 24 5.371094 24 12 C 24 18.628906 18.628906 24 12 24 Z M 12 24 "/>
<path style=" stroke:none;fill-rule:nonzero;fill:rgb(100%,100%,100%);fill-opacity:1;" d="M 16.710938 6.882812 C 16.546875 6.890625 16.394531 6.9375 16.261719 6.988281 C 16.140625 7.039062 15.703125 7.222656 15.003906 7.515625 C 14.308594 7.808594 13.382812 8.195312 12.398438 8.609375 C 10.425781 9.4375 8.210938 10.371094 7.074219 10.851562 C 7.035156 10.867188 6.875 10.914062 6.703125 11.046875 C 6.527344 11.183594 6.332031 11.472656 6.332031 11.789062 C 6.332031 12.046875 6.460938 12.308594 6.613281 12.457031 C 6.769531 12.605469 6.925781 12.675781 7.054688 12.726562 C 7.5 12.902344 8.820312 13.433594 9.132812 13.558594 C 9.246094 13.890625 9.726562 15.324219 9.839844 15.683594 L 9.835938 15.683594 C 9.917969 15.9375 9.996094 16.105469 10.105469 16.242188 C 10.160156 16.3125 10.226562 16.375 10.304688 16.425781 C 10.335938 16.445312 10.371094 16.457031 10.402344 16.472656 C 10.410156 16.472656 10.414062 16.476562 10.417969 16.476562 L 10.40625 16.472656 C 10.414062 16.476562 10.421875 16.484375 10.433594 16.488281 C 10.449219 16.492188 10.460938 16.492188 10.484375 16.496094 C 10.5625 16.519531 10.640625 16.535156 10.710938 16.535156 C 11.019531 16.535156 11.207031 16.371094 11.207031 16.371094 L 11.21875 16.359375 L 12.550781 15.234375 L 14.183594 16.742188 C 14.210938 16.785156 14.445312 17.101562 14.984375 17.101562 C 15.308594 17.101562 15.5625 16.941406 15.726562 16.773438 C 15.886719 16.605469 15.988281 16.433594 16.035156 16.203125 C 16.074219 16.015625 17.632812 8.175781 17.632812 8.175781 L 17.628906 8.191406 C 17.679688 7.972656 17.691406 7.765625 17.636719 7.550781 C 17.578125 7.335938 17.421875 7.128906 17.238281 7.019531 C 17.050781 6.910156 16.875 6.875 16.710938 6.882812 Z M 16.484375 8.125 C 16.425781 8.433594 15.027344 15.460938 14.941406 15.898438 L 12.585938 13.722656 L 10.992188 15.066406 L 11.433594 13.34375 C 11.433594 13.34375 14.476562 10.265625 14.660156 10.085938 C 14.804688 9.941406 14.835938 9.890625 14.835938 9.84375 C 14.835938 9.777344 14.800781 9.726562 14.722656 9.726562 C 14.652344 9.726562 14.558594 9.796875 14.503906 9.828125 C 13.855469 10.230469 11.09375 11.804688 9.734375 12.578125 C 9.652344 12.546875 8.425781 12.054688 7.765625 11.789062 C 8.941406 11.292969 10.957031 10.445312 12.835938 9.65625 C 13.820312 9.242188 14.746094 8.851562 15.445312 8.558594 C 16.03125 8.3125 16.339844 8.183594 16.484375 8.125 Z M 14.921875 15.980469 L 14.925781 15.980469 C 14.925781 15.980469 14.921875 15.984375 14.921875 15.984375 C 14.925781 15.980469 14.921875 15.984375 14.921875 15.980469 Z M 14.921875 15.980469 "/>
</g>
</svg>
