<svg width="29" height="30" viewBox="0 0 29 30" fill="none" xmlns="http://www.w3.org/2000/svg">
<path d="M14.5 8.46875C13.2422 8.46875 12.0127 8.8518 10.9669 9.56946C9.92113 10.2871 9.10603 11.3072 8.6247 12.5006C8.14338 13.694 8.01744 15.0072 8.26282 16.2742C8.5082 17.5411 9.11387 18.7049 10.0032 19.6183C10.8926 20.5317 12.0257 21.1537 13.2593 21.4058C14.4929 21.6578 15.7716 21.5284 16.9336 21.0341C18.0957 20.5398 19.0888 19.7026 19.7876 18.6286C20.4864 17.5545 20.8594 16.2918 20.8594 15C20.8575 13.2684 20.1868 11.6083 18.9946 10.3839C17.8024 9.15946 16.186 8.47071 14.5 8.46875V8.46875ZM14.5 20.3438C13.4709 20.3438 12.4649 20.0303 11.6093 19.4432C10.7536 18.856 10.0868 18.0214 9.69294 17.045C9.29913 16.0685 9.19609 14.9941 9.39685 13.9575C9.59761 12.9209 10.0932 11.9687 10.8208 11.2214C11.5485 10.4741 12.4756 9.96512 13.4849 9.75893C14.4942 9.55274 15.5404 9.65856 16.4911 10.063C17.4419 10.4675 18.2545 11.1524 18.8262 12.0312C19.398 12.9099 19.7031 13.9431 19.7031 15C19.7016 16.4168 19.1529 17.7751 18.1775 18.7769C17.202 19.7787 15.8795 20.3422 14.5 20.3438ZM20.8594 0.75H8.14062C6.14805 0.752318 4.23773 1.56629 2.82877 3.01333C1.4198 4.46037 0.627257 6.42232 0.625 8.46875V21.5312C0.627257 23.5777 1.4198 25.5396 2.82877 26.9867C4.23773 28.4337 6.14805 29.2477 8.14062 29.25H20.8594C22.8519 29.2477 24.7623 28.4337 26.1712 26.9867C27.5802 25.5396 28.3727 23.5777 28.375 21.5312V8.46875C28.3727 6.42232 27.5802 4.46037 26.1712 3.01333C24.7623 1.56629 22.8519 0.752318 20.8594 0.75V0.75ZM27.2188 21.5312C27.2168 23.2628 26.5462 24.923 25.354 26.1474C24.1618 27.3718 22.5454 28.0605 20.8594 28.0625H8.14062C6.4546 28.0605 4.83818 27.3718 3.64598 26.1474C2.45378 24.923 1.78316 23.2628 1.78125 21.5312V8.46875C1.78316 6.73716 2.45378 5.07705 3.64598 3.85263C4.83818 2.62821 6.4546 1.93946 8.14062 1.9375H20.8594C22.5454 1.93946 24.1618 2.62821 25.354 3.85263C26.5462 5.07705 27.2168 6.73716 27.2188 8.46875V21.5312ZM23.1719 7.28125C23.1719 7.51612 23.1041 7.74571 22.977 7.94099C22.85 8.13627 22.6694 8.28848 22.4581 8.37836C22.2468 8.46824 22.0143 8.49175 21.7901 8.44593C21.5658 8.40011 21.3597 8.28701 21.198 8.12094C21.0363 7.95486 20.9262 7.74327 20.8816 7.51292C20.837 7.28257 20.8599 7.0438 20.9474 6.82681C21.0349 6.60983 21.1831 6.42436 21.3732 6.29388C21.5634 6.1634 21.7869 6.09375 22.0156 6.09375C22.3222 6.09414 22.616 6.21938 22.8328 6.44199C23.0496 6.66461 23.1715 6.96643 23.1719 7.28125V7.28125Z" fill="black"/>
</svg>
