<svg width="38" height="38" viewBox="0 0 38 38" fill="none" xmlns="http://www.w3.org/2000/svg">
<path d="M33.8438 19C33.8438 16.0643 32.9732 13.1944 31.3422 10.7534C29.7113 8.31242 27.3931 6.40986 24.6808 5.28633C21.9686 4.16279 18.9841 3.86874 16.1047 4.44136C13.2254 5.01397 10.5805 6.42754 8.50447 8.50331C6.42847 10.5791 5.01461 13.2238 4.44167 16.1031C3.86874 18.9824 4.16246 21.967 5.2857 24.6793C6.40894 27.3917 8.31125 29.7101 10.7521 31.3413C13.1929 32.9726 16.0626 33.8434 18.9984 33.8438L19 33.8439L19.0016 33.8438C22.9368 33.8389 26.7094 32.2734 29.4918 29.4906C32.2742 26.7079 33.8393 22.9352 33.8438 19ZM19.5938 32.6426V21.9688H23.75C23.9075 21.9688 24.0585 21.9062 24.1698 21.7949C24.2812 21.6835 24.3438 21.5325 24.3438 21.375C24.3438 21.2175 24.2812 21.0665 24.1698 20.9552C24.0585 20.8438 23.9075 20.7813 23.75 20.7813H19.5938V16.625C19.5946 15.8379 19.9077 15.0833 20.4642 14.5267C21.0208 13.9702 21.7754 13.6571 22.5625 13.6563H24.9375C25.095 13.6563 25.246 13.5937 25.3573 13.4824C25.4687 13.371 25.5313 13.22 25.5313 13.0625C25.5313 12.905 25.4687 12.754 25.3573 12.6427C25.246 12.5313 25.095 12.4688 24.9375 12.4688H22.5625C21.4606 12.47 20.4041 12.9083 19.6249 13.6874C18.8458 14.4666 18.4075 15.5231 18.4063 16.625V20.7813H14.25C14.0925 20.7813 13.9415 20.8438 13.8302 20.9552C13.7188 21.0665 13.6563 21.2175 13.6563 21.375C13.6563 21.5325 13.7188 21.6835 13.8302 21.7949C13.9415 21.9062 14.0925 21.9688 14.25 21.9688H18.4063V32.6424C14.8392 32.4872 11.4748 30.9412 9.03379 28.3355C6.59279 25.7298 5.26935 22.2718 5.34699 18.7022C5.42462 15.1326 6.89716 11.7353 9.44914 9.23827C12.0011 6.74119 15.4296 5.34287 19 5.34287C22.5704 5.34287 25.9989 6.74119 28.5509 9.23827C31.1028 11.7353 32.5754 15.1326 32.653 18.7022C32.7307 22.2718 31.4072 25.7298 28.9662 28.3355C26.5252 30.9412 23.1608 32.4872 19.5938 32.6424V32.6426Z" fill="black"/>
</svg>
